<?xml version="1.0" encoding="UTF-8" standalone="no"?>
<!-- Created with Inkscape (http://www.inkscape.org/) -->

<svg
   xmlns:dc="http://purl.org/dc/elements/1.1/"
   xmlns:cc="http://creativecommons.org/ns#"
   xmlns:rdf="http://www.w3.org/1999/02/22-rdf-syntax-ns#"
   xmlns:svg="http://www.w3.org/2000/svg"
   xmlns="http://www.w3.org/2000/svg"
   xmlns:sodipodi="http://sodipodi.sourceforge.net/DTD/sodipodi-0.dtd"
   xmlns:inkscape="http://www.inkscape.org/namespaces/inkscape"
   width="24.095226mm"
   height="8.5530033mm"
   viewBox="0 0 24.095227 8.5530034"
   version="1.1"
   id="svg8"
   sodipodi:docname="logo_capital_x_plano.svg"
   inkscape:version="0.92.5 (2060ec1f9f, 2020-04-08)">
  <defs
     id="defs2" />
  <sodipodi:namedview
     id="base"
     pagecolor="#ffffff"
     bordercolor="#666666"
     borderopacity="1.0"
     inkscape:pageopacity="0.0"
     inkscape:pageshadow="2"
     inkscape:zoom="7.9195959"
     inkscape:cx="15.974111"
     inkscape:cy="0.16984379"
     inkscape:document-units="mm"
     inkscape:current-layer="layer1"
     showgrid="false"
     inkscape:window-width="1885"
     inkscape:window-height="1052"
     inkscape:window-x="35"
     inkscape:window-y="0"
     inkscape:window-maximized="1"
     fit-margin-top="0"
     fit-margin-left="0"
     fit-margin-right="0"
     fit-margin-bottom="0" />
  <metadata
     id="metadata5">
    <rdf:RDF>
      <cc:Work
         rdf:about="">
        <dc:format>image/svg+xml</dc:format>
        <dc:type
           rdf:resource="http://purl.org/dc/dcmitype/StillImage" />
        <dc:title></dc:title>
      </cc:Work>
    </rdf:RDF>
  </metadata>
  <g
     inkscape:label="Capa 1"
     inkscape:groupmode="layer"
     id="layer1"
     transform="translate(34.230664,-101.08014)"
     style="display:inline">
    <g
       id="g1071"
       transform="translate(3.8085921)">
      <rect
         y="101.08014"
         x="-37.975685"
         height="8.5530033"
         width="23.968084"
         id="rect4872"
         style="fill:#ffffff;fill-opacity:1;stroke:none;stroke-width:0.44014889;stroke-miterlimit:4;stroke-dasharray:none;stroke-opacity:1" />
      <g
         transform="translate(-3.7718412,-9.1609874)"
         id="g1052">
        <g
           transform="matrix(0.07611731,0,0,0.07611731,-36.228127,76.012288)"
           data-name="Grupo 82"
           id="Grupo_82">
          <text
             letter-spacing="0.08em"
             font-weight="500"
             font-size="9"
             transform="translate(186.853,530.007)"
             data-name="FACTORAJE FINANCIERO"
             id="FACTORAJE_FINANCIERO"
             style="font-weight:500;font-size:9px;font-family:Montserrat-Medium, Montserrat;letter-spacing:0.08em;fill:#0b090c">
            <tspan
               id="tspan990"
               y="0"
               x="0">FACTORAJE FINANCIERO</tspan>
          </text>
          <path
             transform="translate(18.026,0.147)"
             d="M 88.973,517.063 76.156,480.134 h -9.829 l -12.81,36.937 h 7.717 l 10.008,-28.836 10.015,28.828 z"
             data-name="Trazado 266"
             id="Trazado_266"
             inkscape:connector-curvature="0"
             style="fill:#14224a" />
          <path
             transform="translate(79.087,0.147)"
             d="M 174.244,517.191 161.427,480.134 H 151.6 l -12.82,37.057 h 7.72 l 10.015,-28.956 10.015,28.956 z"
             data-name="Trazado 267"
             id="Trazado_267"
             inkscape:connector-curvature="0"
             style="fill:#6d6e6e" />
          <rect
             transform="translate(157.907,480.153)"
             height="37.049"
             width="7.796"
             data-name="Rectángulo 20"
             id="Rectángulo_20"
             x="0"
             y="0"
             style="fill:#14224a" />
          <path
             transform="translate(61.769,0.132)"
             d="M 145.435,480.113 H 114.6 v 6.16 h 11.6 l -0.02,30.8 h 7.8 l 0.02,-30.8 h 11.443 z"
             data-name="Trazado 268"
             id="Trazado_268"
             inkscape:connector-curvature="0"
             style="fill:#6d6e6e" />
          <path
             transform="translate(98.336,0.094)"
             d="m 173.454,510.91 v -30.851 h -7.8 v 37.049 h 26.189 l 1.109,-6.2 z"
             data-name="Trazado 269"
             id="Trazado_269"
             inkscape:connector-curvature="0"
             style="fill:#6d6e6e" />
          <g
             transform="translate(117.662,480.252)"
             data-name="Grupo 80"
             id="Grupo_80">
            <path
               transform="translate(-80.391,-480.117)"
               d="m 97.589,480.213 v -0.1 h -10.2 v 0 h -6.998 v 36.954 h 7.8 v -15.026 h 9.4 v 0 c 6.844,-0.024 12.384,-4.9 12.384,-10.913 0,-6.013 -5.542,-10.891 -12.386,-10.915 z m -1.034,16.287 -8.272,0.395 0.033,-11.744 8.239,0.235 a 5.557,5.557 0 1 1 0,11.114 z"
               data-name="Trazado 270"
               id="Trazado_270"
               inkscape:connector-curvature="0"
               style="fill:#14224a" />
          </g>
          <g
             transform="translate(301.955,480.428)"
             data-name="Grupo 81"
             id="Grupo_81">
            <path
               transform="translate(-187.778,-480.22)"
               d="M 201.342,498.713 187.78,480.22 h 9.607 l 13.562,18.494 v 0 l -13.564,18.5 h -9.608 l 13.563,-18.5 z"
               data-name="Trazado 271"
               id="Trazado_271"
               inkscape:connector-curvature="0"
               style="fill:#14224a" />
            <path
               transform="translate(-179.262,-471.928)"
               d="m 199.67,498.347 7.752,10.571 h 9.607 L 204.474,491.8 Z"
               data-name="Trazado 272"
               id="Trazado_272"
               inkscape:connector-curvature="0"
               style="fill:#14224a" />
            <path
               transform="translate(-179.261,-480.22)"
               d="m 217.031,480.22 h -9.608 l -7.752,10.571 4.8,6.551 z"
               data-name="Trazado 273"
               id="Trazado_273"
               inkscape:connector-curvature="0"
               style="fill:#14224a" />
          </g>
          <path
             d="M 52.988,492.538 H 60.4 c 0,0 0.867,-12.61 -14.919,-12.61 -15.786,0 -17.134,16.188 -17.134,18.772 0,2.584 0.192,18.479 16.653,18.479 15.207,0 15.881,-11.359 15.881,-12.416 l -7.748,0.048 c 0,0 0.048,6.69 -7.845,6.69 -7.893,0 -9.434,-6.642 -9.434,-12.9 0,-5.967 1.541,-12.9 9.722,-12.9 7.508,-0.001 7.412,6.837 7.412,6.837 z"
             data-name="Trazado 274"
             id="Trazado_274"
             inkscape:connector-curvature="0"
             style="fill:#14224a" />
        </g>
      </g>
    </g>
  </g>
</svg>
